# xmcd
#
# Track frame offsets: 
#        150
#        26166
#        41528
#        59060
#        80608
#        106118
#        134307
#        154832
#        176350
#        198152
#        210840
#
# Disc length: 3096 seconds
#
# Revision: 0
# Processed by: cddbd v1.5.2PL0 Copyright (c) Steve Scherf et al.
# Submitted via: ExactAudioCopy v0.99pb5
#
DISCID=8c0c160b
DTITLE=Jo Hamilton - Gown
DYEAR=2011
DGENRE=Pop
TTITLE0=Exist (Beyond My Wildest Dreams)    
TTITLE1=Pick Me Up    
TTITLE2=There It Is    
TTITLE3=How Beautiful    
TTITLE4=Deeper (Glorious)    
TTITLE5=Paradise    
TTITLE6=All in Adoration    
TTITLE7=Liathach    
TTITLE8=Mekong Song    
TTITLE9=Winter Is Over    
TTITLE10=Think of Me
EXTD=
EXTT0=
EXTT1=
EXTT2=
EXTT3=
EXTT4=
EXTT5=
EXTT6=
EXTT7=
EXTT8=
EXTT9=
EXTT10=
PLAYORDER=
